<svg width="63" height="70" viewBox="0 0 63 70" fill="none" xmlns="http://www.w3.org/2000/svg">
<path d="M47.0251 16.1465C42.7182 15.4518 38.4203 16.3714 34.7798 18.7407C35.8657 16.3547 37.5651 14.1967 39.8634 12.2943C42.6012 10.028 45.1988 8.99526 45.22 8.98692C46.2952 8.5713 46.8297 7.36271 46.4141 6.28755C45.9986 5.21253 44.7904 4.67769 43.7147 5.09345C43.3858 5.2206 38.2154 7.27644 34.1319 12.0759C33.9787 11.3204 33.7651 10.56 33.4758 9.80614C31.046 3.47662 24.371 0.324438 24.0881 0.193325C23.576 -0.0438813 22.9896 -0.0635687 22.4627 0.138501C21.9359 0.340845 21.5133 0.747855 21.2915 1.2667C21.1689 1.55367 18.3178 8.36253 20.7475 14.692C20.9666 15.2624 21.2203 15.8066 21.5005 16.3254C19.3897 15.8587 17.19 15.791 14.9879 16.1463C5.33117 17.7045 -1.29612 27.025 0.214615 36.924C1.28991 43.97 2.86189 50.0219 4.88752 54.9109C7.1848 60.4565 10.0864 64.5337 13.5116 67.0298C16.2237 69.0061 19.2447 70.0003 22.5232 70C23.4301 70 24.3572 69.9239 25.3023 69.7714C27.4834 69.4196 29.394 68.6201 31.0065 67.388C32.6189 68.6201 34.5297 69.4198 36.7107 69.7714C41.0716 70.475 45.0389 69.5527 48.5013 67.0298C51.9265 64.5339 54.8282 60.4566 57.1253 54.9109C59.1509 50.0216 60.7229 43.9699 61.7982 36.924C63.309 27.025 56.6817 17.7045 47.0251 16.1465ZM24.4195 5.22292C26.1474 6.41839 28.4892 8.46356 29.5789 11.302C30.6617 14.1226 30.2868 17.223 29.8039 19.2753C28.0762 18.0799 25.7343 16.0348 24.6447 13.1962C23.5618 10.3757 23.9366 7.27548 24.4195 5.22292ZM57.6719 36.2943C55.5503 50.197 51.5293 59.6586 46.0431 63.6561C43.4778 65.5253 40.6425 66.1779 37.3752 65.6504C35.3729 65.3275 33.7912 64.5117 32.5394 63.1566C32.1443 62.729 31.5885 62.4858 31.0062 62.4858C30.4239 62.4858 29.8682 62.729 29.4731 63.1566C28.2214 64.5117 26.6396 65.3274 24.6372 65.6504C21.3699 66.1772 18.5348 65.5253 15.9694 63.6561C10.4831 59.6586 6.4621 50.197 4.3405 36.2943C3.17416 28.6514 8.24874 21.4618 15.6523 20.2674C16.3627 20.1527 17.0732 20.0961 17.7784 20.0961C20.6606 20.0961 23.4559 21.043 25.8194 22.8489C28.8731 25.1823 33.1389 25.1823 36.1928 22.8489C39.1347 20.6012 42.7457 19.684 46.3598 20.2674H46.36C53.7638 21.4619 58.8383 28.6516 57.6719 36.2943Z" fill="white"/>
</svg>
