<svg width="70" height="70" viewBox="0 0 70 70" fill="none" xmlns="http://www.w3.org/2000/svg">
<path d="M66.5 0H3.50001C2.85572 0 2.33334 0.522375 2.33334 1.16667V66.5C2.33334 67.1443 2.85572 67.6667 3.50001 67.6667H5.83334V70H8.16668V67.6667H19.8333V70H22.1667V67.6667H26.8333V70H29.1667V67.6667H40.8333V70H43.1667V67.6667H47.8333V70H50.1667V67.6667H61.8333V70H64.1667V67.6667H66.5C67.1443 67.6667 67.6667 67.1443 67.6667 66.5V1.16667C67.6667 0.522375 67.1443 0 66.5 0ZM23.3333 65.3333H4.66668V2.33333H23.3333V65.3333ZM44.3333 65.3333H25.6667V2.33333H44.3333V65.3333ZM65.3333 65.3333H46.6667V2.33333H65.3333V65.3333Z" fill="white"/>
<path d="M19.8333 5.83337H8.16666V8.16671H19.8333V5.83337Z" fill="white"/>
<path d="M19.8333 10.5H8.16666V12.8333H19.8333V10.5Z" fill="white"/>
<path d="M19.8333 15.1666H8.16666V17.5H19.8333V15.1666Z" fill="white"/>
<path d="M19.8333 50.1666H8.16666V52.5H19.8333V50.1666Z" fill="white"/>
<path d="M19.8333 54.8334H8.16666V57.1667H19.8333V54.8334Z" fill="white"/>
<path d="M19.8333 59.5H8.16666V61.8333H19.8333V59.5Z" fill="white"/>
<path d="M10.5 28H8.16666V30.3333H10.5V28Z" fill="white"/>
<path d="M10.5 32.6666H8.16666V40.8333H10.5V32.6666Z" fill="white"/>
<path d="M40.8333 5.83337H29.1667V8.16671H40.8333V5.83337Z" fill="white"/>
<path d="M40.8333 10.5H29.1667V12.8333H40.8333V10.5Z" fill="white"/>
<path d="M40.8333 15.1666H29.1667V17.5H40.8333V15.1666Z" fill="white"/>
<path d="M40.8333 50.1666H29.1667V52.5H40.8333V50.1666Z" fill="white"/>
<path d="M40.8333 54.8334H29.1667V57.1667H40.8333V54.8334Z" fill="white"/>
<path d="M40.8333 59.5H29.1667V61.8333H40.8333V59.5Z" fill="white"/>
<path d="M31.5 28H29.1667V30.3333H31.5V28Z" fill="white"/>
<path d="M31.5 32.6666H29.1667V40.8333H31.5V32.6666Z" fill="white"/>
<path d="M61.8334 5.83337H50.1667V8.16671H61.8334V5.83337Z" fill="white"/>
<path d="M61.8334 10.5H50.1667V12.8333H61.8334V10.5Z" fill="white"/>
<path d="M61.8334 15.1666H50.1667V17.5H61.8334V15.1666Z" fill="white"/>
<path d="M61.8334 50.1666H50.1667V52.5H61.8334V50.1666Z" fill="white"/>
<path d="M61.8334 54.8334H50.1667V57.1667H61.8334V54.8334Z" fill="white"/>
<path d="M61.8334 59.5H50.1667V61.8333H61.8334V59.5Z" fill="white"/>
<path d="M52.5 28H50.1667V30.3333H52.5V28Z" fill="white"/>
<path d="M52.5 32.6666H50.1667V40.8333H52.5V32.6666Z" fill="white"/>
</svg>
