<svg width="66" height="66" viewBox="0 0 66 66" fill="none" xmlns="http://www.w3.org/2000/svg">
<path d="M22.0625 49.4062H19.875V51.5938H22.0625V49.4062Z" fill="white"/>
<path d="M62.5312 59.25H60.3438V29.6094C61.5774 29.354 62.6856 28.6819 63.4823 27.706C64.2789 26.7301 64.7155 25.5098 64.7188 24.25C64.7209 24.1914 64.7173 24.1328 64.7078 24.075L62.8156 12.7766C62.6935 12.0094 62.3013 11.3111 61.7096 10.8077C61.118 10.3043 60.3659 10.0289 59.5891 10.0312H51.5938V3.46875C51.5912 2.59931 51.2446 1.76622 50.6298 1.15142C50.015 0.536633 49.1819 0.190097 48.3125 0.1875H17.6875C16.8181 0.190097 15.985 0.536633 15.3702 1.15142C14.7554 1.76622 14.4088 2.59931 14.4062 3.46875V10.0312H6.41094C5.63411 10.0289 4.88201 10.3043 4.29036 10.8077C3.69871 11.3111 3.30645 12.0094 3.18437 12.7766L1.29219 24.075C1.28275 24.1328 1.27909 24.1914 1.28125 24.25C1.28448 25.5098 1.72108 26.7301 2.51774 27.706C3.31441 28.6819 4.42261 29.354 5.65625 29.6094V59.25H3.46875C2.59851 59.25 1.76391 59.5957 1.14856 60.2111C0.533202 60.8264 0.1875 61.661 0.1875 62.5312C0.1875 63.4015 0.533202 64.2361 1.14856 64.8514C1.76391 65.4668 2.59851 65.8125 3.46875 65.8125H62.5312C63.4015 65.8125 64.2361 65.4668 64.8514 64.8514C65.4668 64.2361 65.8125 63.4015 65.8125 62.5312C65.8125 61.661 65.4668 60.8264 64.8514 60.2111C64.2361 59.5957 63.4015 59.25 62.5312 59.25ZM55.9688 12.2188H59.5891C59.8481 12.2182 60.0988 12.3106 60.2955 12.4792C60.4922 12.6478 60.6219 12.8814 60.6609 13.1375L62.5312 24.3375C62.5196 25.2077 62.1628 26.0377 61.5393 26.6449C60.9157 27.252 60.0765 27.5866 59.2062 27.575C58.336 27.5634 57.506 27.2066 56.8989 26.583C56.2917 25.9594 55.9571 25.1202 55.9688 24.25V12.2188ZM51.5938 20.9688V12.2188H53.7812V24.25C53.7812 25.1202 53.4355 25.9548 52.8202 26.5702C52.2048 27.1855 51.3702 27.5312 50.5 27.5312C49.6298 27.5312 48.7952 27.1855 48.1798 26.5702C47.5645 25.9548 47.2188 25.1202 47.2188 24.25H48.3125C49.1819 24.2474 50.015 23.9009 50.6298 23.2861C51.2446 22.6713 51.5912 21.8382 51.5938 20.9688ZM16.5938 3.46875C16.5938 3.17867 16.709 2.90047 16.9141 2.69535C17.1192 2.49023 17.3974 2.375 17.6875 2.375H48.3125C48.6026 2.375 48.8808 2.49023 49.0859 2.69535C49.291 2.90047 49.4062 3.17867 49.4062 3.46875V20.9688C49.4062 21.2588 49.291 21.537 49.0859 21.7421C48.8808 21.9473 48.6026 22.0625 48.3125 22.0625H17.6875C17.3974 22.0625 17.1192 21.9473 16.9141 21.7421C16.709 21.537 16.5938 21.2588 16.5938 20.9688V3.46875ZM45.0312 24.25C45.0312 25.1202 44.6855 25.9548 44.0702 26.5702C43.4548 27.1855 42.6202 27.5312 41.75 27.5312C40.8798 27.5312 40.0452 27.1855 39.4298 26.5702C38.8145 25.9548 38.4688 25.1202 38.4688 24.25H45.0312ZM36.2812 24.25C36.2812 25.1202 35.9355 25.9548 35.3202 26.5702C34.7048 27.1855 33.8702 27.5312 33 27.5312C32.1298 27.5312 31.2952 27.1855 30.6798 26.5702C30.0645 25.9548 29.7188 25.1202 29.7188 24.25H36.2812ZM27.5312 24.25C27.5312 25.1202 27.1855 25.9548 26.5702 26.5702C25.9548 27.1855 25.1202 27.5312 24.25 27.5312C23.3798 27.5312 22.5452 27.1855 21.9298 26.5702C21.3145 25.9548 20.9688 25.1202 20.9688 24.25H27.5312ZM12.2188 12.2188H14.4062V20.9688C14.4088 21.8382 14.7554 22.6713 15.3702 23.2861C15.985 23.9009 16.8181 24.2474 17.6875 24.25H18.7812C18.7812 25.1202 18.4355 25.9548 17.8202 26.5702C17.2048 27.1855 16.3702 27.5312 15.5 27.5312C14.6298 27.5312 13.7952 27.1855 13.1798 26.5702C12.5645 25.9548 12.2188 25.1202 12.2188 24.25V12.2188ZM11.125 27.5312C11.6344 28.2104 12.2949 28.7617 13.0543 29.1414C13.8137 29.5211 14.651 29.7188 15.5 29.7188C16.349 29.7188 17.1863 29.5211 17.9457 29.1414C18.7051 28.7617 19.3656 28.2104 19.875 27.5312C20.3844 28.2104 21.0449 28.7617 21.8043 29.1414C22.5637 29.5211 23.401 29.7188 24.25 29.7188C25.099 29.7188 25.9363 29.5211 26.6957 29.1414C27.4551 28.7617 28.1156 28.2104 28.625 27.5312C29.1344 28.2104 29.7949 28.7617 30.5543 29.1414C31.3137 29.5211 32.151 29.7188 33 29.7188C33.849 29.7188 34.6863 29.5211 35.4457 29.1414C36.2051 28.7617 36.8656 28.2104 37.375 27.5312C37.8844 28.2104 38.5449 28.7617 39.3043 29.1414C40.0637 29.5211 40.901 29.7188 41.75 29.7188C42.599 29.7188 43.4363 29.5211 44.1957 29.1414C44.9551 28.7617 45.6156 28.2104 46.125 27.5312C46.6344 28.2104 47.2949 28.7617 48.0543 29.1414C48.8137 29.5211 49.651 29.7188 50.5 29.7188C51.349 29.7188 52.1863 29.5211 52.9457 29.1414C53.7051 28.7617 54.3656 28.2104 54.875 27.5312C55.6791 28.5985 56.8465 29.3339 58.1562 29.5984V59.25H25.3438V45.0312C25.3438 43.0007 24.5371 41.0533 23.1013 39.6175C21.6655 38.1816 19.7181 37.375 17.6875 37.375C15.6569 37.375 13.7095 38.1816 12.2737 39.6175C10.8379 41.0533 10.0312 43.0007 10.0312 45.0312V59.25H7.84375V29.5984C9.15353 29.3339 10.3209 28.5985 11.125 27.5312ZM23.1562 45.0312V59.25H12.2188V45.0312C12.2188 43.5808 12.7949 42.1898 13.8205 41.1643C14.8461 40.1387 16.2371 39.5625 17.6875 39.5625C19.1379 39.5625 20.5289 40.1387 21.5545 41.1643C22.5801 42.1898 23.1562 43.5808 23.1562 45.0312ZM3.46875 24.3375L5.33906 13.1375C5.37809 12.8814 5.50775 12.6478 5.70446 12.4792C5.90117 12.3106 6.15186 12.2182 6.41094 12.2188H10.0312V24.25C10.0429 25.1202 9.70828 25.9594 9.10113 26.583C8.49398 27.2066 7.66399 27.5634 6.79375 27.575C5.92351 27.5866 5.0843 27.252 4.46074 26.6449C3.83718 26.0377 3.48035 25.2077 3.46875 24.3375ZM62.5312 63.625H3.46875C3.17867 63.625 2.90047 63.5098 2.69535 63.3046C2.49023 63.0995 2.375 62.8213 2.375 62.5312C2.375 62.2412 2.49023 61.963 2.69535 61.7579C2.90047 61.5527 3.17867 61.4375 3.46875 61.4375H62.5312C62.8213 61.4375 63.0995 61.5527 63.3046 61.7579C63.5098 61.963 63.625 62.2412 63.625 62.5312C63.625 62.8213 63.5098 63.0995 63.3046 63.3046C63.0995 63.5098 62.8213 63.625 62.5312 63.625Z" fill="white"/>
<path d="M46.125 6.75H42.8438V5.65625C42.8438 5.36617 42.7285 5.08797 42.5234 4.88285C42.3183 4.67773 42.0401 4.5625 41.75 4.5625H37.375C37.0849 4.5625 36.8067 4.67773 36.6016 4.88285C36.3965 5.08797 36.2812 5.36617 36.2812 5.65625V8.9375H29.7188V5.65625C29.7188 5.36617 29.6035 5.08797 29.3984 4.88285C29.1933 4.67773 28.9151 4.5625 28.625 4.5625H24.25C23.9599 4.5625 23.6817 4.67773 23.4766 4.88285C23.2715 5.08797 23.1562 5.36617 23.1562 5.65625V6.75H19.875C19.5849 6.75 19.3067 6.86523 19.1016 7.07035C18.8965 7.27547 18.7812 7.55367 18.7812 7.84375V16.5938C18.7812 16.8838 18.8965 17.162 19.1016 17.3671C19.3067 17.5723 19.5849 17.6875 19.875 17.6875H23.1562V18.7812C23.1562 19.0713 23.2715 19.3495 23.4766 19.5546C23.6817 19.7598 23.9599 19.875 24.25 19.875H28.625C28.9151 19.875 29.1933 19.7598 29.3984 19.5546C29.6035 19.3495 29.7188 19.0713 29.7188 18.7812V15.5H36.2812V18.7812C36.2812 19.0713 36.3965 19.3495 36.6016 19.5546C36.8067 19.7598 37.0849 19.875 37.375 19.875H41.75C42.0401 19.875 42.3183 19.7598 42.5234 19.5546C42.7285 19.3495 42.8438 19.0713 42.8438 18.7812V17.6875H46.125C46.4151 17.6875 46.6933 17.5723 46.8984 17.3671C47.1035 17.162 47.2188 16.8838 47.2188 16.5938V7.84375C47.2188 7.55367 47.1035 7.27547 46.8984 7.07035C46.6933 6.86523 46.4151 6.75 46.125 6.75ZM23.1562 15.5H20.9688V8.9375H23.1562V15.5ZM27.5312 17.6875H25.3438V6.75H27.5312V17.6875ZM36.2812 13.3125H29.7188V11.125H36.2812V13.3125ZM40.6562 17.6875H38.4688V6.75H40.6562V17.6875ZM45.0312 15.5H42.8438V8.9375H45.0312V15.5Z" fill="white"/>
<path d="M52.6875 33H30.8125C29.9431 33.0026 29.11 33.3491 28.4952 33.9639C27.8804 34.5787 27.5338 35.4118 27.5312 36.2812V53.7812C27.5338 54.6507 27.8804 55.4838 28.4952 56.0986C29.11 56.7134 29.9431 57.0599 30.8125 57.0625H52.6875C53.5569 57.0599 54.39 56.7134 55.0048 56.0986C55.6196 55.4838 55.9662 54.6507 55.9688 53.7812V36.2812C55.9662 35.4118 55.6196 34.5787 55.0048 33.9639C54.39 33.3491 53.5569 33.0026 52.6875 33ZM53.7812 53.7812C53.7812 54.0713 53.666 54.3495 53.4609 54.5546C53.2558 54.7598 52.9776 54.875 52.6875 54.875H30.8125C30.5224 54.875 30.2442 54.7598 30.0391 54.5546C29.834 54.3495 29.7188 54.0713 29.7188 53.7812V36.2812C29.7188 35.9912 29.834 35.713 30.0391 35.5079C30.2442 35.3027 30.5224 35.1875 30.8125 35.1875H52.6875C52.9776 35.1875 53.2558 35.3027 53.4609 35.5079C53.666 35.713 53.7812 35.9912 53.7812 36.2812V53.7812Z" fill="white"/>
<path d="M49.4062 41.75H46.125V39.5625H43.9375V43.9375H39.5625V39.5625H37.375V41.75H34.0938C33.8037 41.75 33.5255 41.8652 33.3204 42.0704C33.1152 42.2755 33 42.5537 33 42.8438V47.2188C33 47.5088 33.1152 47.787 33.3204 47.9921C33.5255 48.1973 33.8037 48.3125 34.0938 48.3125H37.375V50.5H39.5625V46.125H43.9375V50.5H46.125V48.3125H49.4062C49.6963 48.3125 49.9745 48.1973 50.1796 47.9921C50.3848 47.787 50.5 47.5088 50.5 47.2188V42.8438C50.5 42.5537 50.3848 42.2755 50.1796 42.0704C49.9745 41.8652 49.6963 41.75 49.4062 41.75ZM37.375 46.125H35.1875V43.9375H37.375V46.125ZM48.3125 46.125H46.125V43.9375H48.3125V46.125Z" fill="white"/>
</svg>
