<svg width="125" height="125" viewBox="0 0 125 125" fill="none" xmlns="http://www.w3.org/2000/svg">
<path d="M86.1026 84.1915L81.3818 79.4706H86.7059V75.3529H77.2641L66.97 65.0588H83.7947L91.4268 72.6909L94.3379 69.7797L89.6171 65.0588H97V60.9412H89.6171L94.3379 56.2203L91.4268 53.3091L83.7947 60.9412H66.97L77.2641 50.6471H86.7059V46.5294H81.3818L86.1026 41.8085L83.1915 38.8974L78.4706 43.6182V38.2941H74.3529V47.7359L64.0588 58.03V41.2053L71.6909 33.5732L68.7797 30.6621L64.0588 35.3829V28H59.9412V35.3829L55.2203 30.6621L52.3091 33.5732L59.9412 41.2053V58.03L49.6471 47.7359V38.2941H45.5294V43.6182L40.8085 38.8974L37.8974 41.8085L42.6182 46.5294H37.2941V50.6471H46.7359L57.03 60.9412H40.2053L32.5732 53.3091L29.6621 56.2203L34.3829 60.9412H27V65.0588H34.3829L29.6621 69.7797L32.5732 72.6909L40.2053 65.0588H57.03L46.7359 75.3529H37.2941V79.4706H42.6182L37.8974 84.1915L40.8085 87.1026L45.5294 82.3818V87.7059H49.6471V78.2641L59.9412 67.97V84.7947L52.3091 92.4268L55.2203 95.3379L59.9412 90.6171V98H64.0588V90.6171L68.7797 95.3379L71.6909 92.4268L64.0588 84.7947V67.97L74.3529 78.2641V87.7059H78.4706V82.3818L83.1915 87.1026L86.1026 84.1915Z" fill="white"/>
</svg>
