<svg width="70" height="70" viewBox="0 0 70 70" fill="none" xmlns="http://www.w3.org/2000/svg">
<path d="M35.0487 53.4825C31.6561 53.4825 28.8963 56.2423 28.8963 59.6349C28.8963 63.0274 31.6561 65.7872 35.0487 65.7872C38.4412 65.7872 41.201 63.0274 41.201 59.6349C41.201 56.2423 38.4413 53.4825 35.0487 53.4825Z" fill="white"/>
<path d="M68.3802 14.8502C48.8977 0.666968 21.1386 0.666968 1.65621 14.8502L0 16.0578L4.90766 22.8075C13.4656 15.9732 24.938 12.1647 36.1382 12.5009C46.5635 12.7386 57.1469 16.4555 65.131 22.8042L70 16.0578L68.3802 14.8502Z" fill="white"/>
<path d="M58.729 28.1202C45.0185 18.1386 25.0179 18.1386 11.3073 28.1202L9.65111 29.3278L14.5671 36.0887C19.9802 31.5555 27.5725 28.9227 34.9006 28.8872C34.9506 28.8872 35.0007 28.8872 35.0528 28.8872C42.4296 28.8872 50.0246 31.5125 55.4769 36.0785L60.3852 29.3278L58.729 28.1202Z" fill="white"/>
<path d="M49.0779 41.3902C41.1392 35.6103 28.8972 35.6103 20.9584 41.3902L19.3022 42.5979L24.2087 49.3458C27.3215 46.3209 32.2507 45.065 35.9941 45.3156C39.1579 45.5224 43.2018 46.8639 45.8008 49.3828L50.7341 42.5979L49.0779 41.3902Z" fill="white"/>
</svg>
