<svg width="112" height="56" viewBox="0 0 112 56" fill="none" xmlns="http://www.w3.org/2000/svg">
<g clip-path="url(#clip0)">
<path d="M8.57122 34.8952H26.9266V41.7975H-0.0734253V0.09729H8.57122V34.8952ZM63.4935 31.4584L73.0026 0.09729H82.627L68.0174 41.7975H58.9983L44.4466 0.09729H54.0419L63.4935 31.4584ZM111.846 23.7255H95.2482V34.8952H114.727V41.7975H86.6036V0.09729H114.67V7.05689H95.2482V16.995H111.846V23.7255Z" fill="#EC803B"/>
<path d="M39.836 28.9953H32.9202L29.101 0.09729H43.7432L39.836 28.9953ZM36.3782 33.5206C37.7806 33.5206 38.9044 33.9309 39.7497 34.7521C40.6141 35.5732 41.0463 36.6232 41.0463 37.9025C41.0463 39.1627 40.6141 40.2033 39.7497 41.0244C38.9044 41.8453 37.7806 42.2558 36.3782 42.2558C34.995 42.2558 33.8712 41.8453 33.0068 41.0244C32.1615 40.2033 31.739 39.1627 31.739 37.9025C31.739 36.6422 32.1615 35.6016 33.0068 34.7807C33.8712 33.9406 34.995 33.5206 36.3782 33.5206Z" fill="black"/>
<path d="M48.3641 46.8308H0.364075V54.4904H48.3641V46.8308Z" fill="black"/>
<path d="M66.0475 51.2731H61.848V55.5848H59.6606V45.0336H66.5724V46.7947H61.848V49.5193H66.0475V51.2731ZM70.3743 55.5848H68.2599V47.7438H70.3743V55.5848ZM68.1359 45.7149C68.1359 45.4009 68.2405 45.1424 68.4495 44.9395C68.6633 44.7365 68.9526 44.6351 69.317 44.6351C69.6768 44.6351 69.9635 44.7365 70.1775 44.9395C70.3913 45.1424 70.4983 45.4009 70.4983 45.7149C70.4983 46.0338 70.3889 46.2946 70.1702 46.4975C69.9562 46.7004 69.672 46.8019 69.317 46.8019C68.9623 46.8019 68.6754 46.7004 68.4568 46.4975C68.243 46.2946 68.1359 46.0338 68.1359 45.7149ZM75.0876 45.8162V47.7438H76.4364V49.2801H75.0876V53.1935C75.0876 53.4833 75.1433 53.6909 75.2551 53.8166C75.367 53.9422 75.5808 54.005 75.8968 54.005C76.1302 54.005 76.3367 53.9881 76.5166 53.9544V55.5413C76.1033 55.6669 75.6781 55.7297 75.2406 55.7297C73.763 55.7297 73.0095 54.9883 72.9804 53.5049V49.2801H71.8284V47.7438H72.9804V45.8162H75.0876ZM79.9975 47.7438L80.0631 48.6498C80.627 47.9493 81.3829 47.599 82.3307 47.599C83.1668 47.599 83.7888 47.843 84.1972 48.331C84.6055 48.8188 84.8144 49.5484 84.8241 50.5194V55.5848H82.7172V50.5702C82.7172 50.1257 82.6198 49.8045 82.4254 49.6064C82.231 49.4033 81.9078 49.302 81.4557 49.302C80.8628 49.302 80.418 49.5532 80.1214 50.0557V55.5848H78.0145V47.7438H79.9975ZM90.507 55.7297C89.3502 55.7297 88.4074 55.3771 87.6781 54.6718C86.9539 53.9665 86.5917 53.0267 86.5917 51.8529V51.6498C86.5917 50.8624 86.745 50.1594 87.0513 49.541C87.3573 48.9179 87.79 48.4395 88.349 48.1062C88.9127 47.7681 89.5543 47.599 90.2739 47.599C91.3528 47.599 92.2011 47.9371 92.8183 48.6135C93.4405 49.29 93.7517 50.2489 93.7517 51.4904V52.3455H88.7282C88.7962 52.8576 89.0003 53.2684 89.3405 53.5776C89.6858 53.8866 90.1206 54.0413 90.6455 54.0413C91.4573 54.0413 92.0917 53.7489 92.5486 53.1644L93.5839 54.3166C93.2679 54.7611 92.8403 55.1091 92.3007 55.3601C91.7612 55.6065 91.1632 55.7297 90.507 55.7297ZM90.2666 49.2948C89.8485 49.2948 89.5083 49.4348 89.2458 49.715C88.9882 49.9953 88.8229 50.3962 88.75 50.918H91.6811V50.7512C91.6711 50.2875 91.5448 49.9301 91.3019 49.6789C91.0588 49.4228 90.7136 49.2948 90.2666 49.2948ZM99.675 53.418C99.675 53.162 99.5462 52.9615 99.2886 52.8167C99.0358 52.6667 98.6276 52.5339 98.0637 52.4179C96.1875 52.0266 95.2496 51.2344 95.2496 50.041C95.2496 49.3453 95.5387 48.7656 96.1171 48.3019C96.7004 47.8333 97.4611 47.599 98.3991 47.599C99.4005 47.599 100.2 47.8333 100.798 48.3019C101.401 48.7704 101.702 49.3793 101.702 50.1281H99.5949C99.5949 49.8285 99.4978 49.5821 99.3034 49.3889C99.1087 49.1908 98.8051 49.0917 98.3918 49.0917C98.0371 49.0917 97.7625 49.1716 97.5681 49.3309C97.3737 49.4904 97.2764 49.6933 97.2764 49.9397C97.2764 50.1715 97.3858 50.3599 97.6044 50.505C97.8281 50.6451 98.2022 50.7683 98.7274 50.8744C99.2523 50.976 99.6946 51.0919 100.054 51.2224C101.167 51.6281 101.724 52.331 101.724 53.3312C101.724 54.0461 101.415 54.6258 100.798 55.0703C100.181 55.51 99.3835 55.7297 98.4066 55.7297C97.7453 55.7297 97.1572 55.6137 96.642 55.382C96.1316 55.1452 95.7307 54.8239 95.4389 54.4182C95.1474 54.0074 95.0016 53.5653 95.0016 53.092H96.9994C97.0187 53.464 97.1572 53.7489 97.4149 53.947C97.6725 54.145 98.0177 54.2442 98.4502 54.2442C98.8538 54.2442 99.1574 54.1693 99.3615 54.0196C99.5707 53.8649 99.675 53.6645 99.675 53.418ZM107.808 53.418C107.808 53.162 107.679 52.9615 107.421 52.8167C107.169 52.6667 106.76 52.5339 106.196 52.4179C104.32 52.0266 103.382 51.2344 103.382 50.041C103.382 49.3453 103.671 48.7656 104.25 48.3019C104.833 47.8333 105.594 47.599 106.532 47.599C107.533 47.599 108.333 47.8333 108.931 48.3019C109.533 48.7704 109.835 49.3793 109.835 50.1281H107.728C107.728 49.8285 107.63 49.5821 107.436 49.3889C107.241 49.1908 106.938 49.0917 106.525 49.0917C106.17 49.0917 105.895 49.1716 105.701 49.3309C105.506 49.4904 105.409 49.6933 105.409 49.9397C105.409 50.1715 105.518 50.3599 105.737 50.505C105.961 50.6451 106.335 50.7683 106.86 50.8744C107.385 50.976 107.827 51.0919 108.187 51.2224C109.3 51.6281 109.857 52.331 109.857 53.3312C109.857 54.0461 109.548 54.6258 108.931 55.0703C108.313 55.51 107.516 55.7297 106.539 55.7297C105.878 55.7297 105.29 55.6137 104.775 55.382C104.264 55.1452 103.863 54.8239 103.572 54.4182C103.28 54.0074 103.134 53.5653 103.134 53.092H105.132C105.151 53.464 105.29 53.7489 105.548 53.947C105.805 54.145 106.15 54.2442 106.583 54.2442C106.986 54.2442 107.29 54.1693 107.494 54.0196C107.703 53.8649 107.808 53.6645 107.808 53.418Z" fill="#EC803B"/>
</g>
<defs>
<clipPath id="clip0">
<rect width="112" height="56" fill="white"/>
</clipPath>
</defs>
</svg>
