<svg width="94" height="62" viewBox="0 0 94 62" fill="none" xmlns="http://www.w3.org/2000/svg">
<g clip-path="url(#clip0)">
<path d="M12.9809 36.9375H27.3592V42.8812H6.20923V6.97266H12.9809V36.9375ZM56.0033 33.9781L63.4521 6.97266H70.9913L59.5471 42.8812H52.4821L41.0832 6.97266H48.5996L56.0033 33.9781ZM93.8793 27.3192H80.8778V36.9375H96.1365V42.8812H74.1062V6.97266H96.0913V12.9656H80.8778V21.5234H93.8793V27.3192Z" fill="white"/>
<path d="M37.4715 31.8571H32.0542L29.0624 6.97266H40.5321L37.4715 31.8571ZM34.7629 35.7538C35.8614 35.7538 36.7417 36.1072 37.4039 36.8143C38.081 37.5213 38.4196 38.4255 38.4196 39.5272C38.4196 40.6123 38.081 41.5084 37.4039 42.2154C36.7417 42.9223 35.8614 43.2758 34.7629 43.2758C33.6794 43.2758 32.7991 42.9223 32.1219 42.2154C31.4598 41.5084 31.1288 40.6123 31.1288 39.5272C31.1288 38.4419 31.4598 37.5458 32.1219 36.8389C32.7991 36.1155 33.6794 35.7538 34.7629 35.7538Z" fill="white"/>
<path d="M44.1519 47.2156H6.55188V53.8113H44.1519V47.2156Z" fill="white"/>
<path d="M58.0038 51.0408H54.7142V54.7536H53.0008V45.6679H58.415V47.1843H54.7142V49.5305H58.0038V51.0408ZM61.3932 54.7536H59.7369V48.0016H61.3932V54.7536ZM59.6398 46.2545C59.6398 45.9841 59.7217 45.7615 59.8854 45.5868C60.0529 45.412 60.2795 45.3247 60.565 45.3247C60.8468 45.3247 61.0713 45.412 61.239 45.5868C61.4065 45.7615 61.4903 45.9841 61.4903 46.2545C61.4903 46.5291 61.4046 46.7537 61.2333 46.9284C61.0657 47.1031 60.843 47.1905 60.565 47.1905C60.2871 47.1905 60.0624 47.1031 59.8911 46.9284C59.7236 46.7537 59.6398 46.5291 59.6398 46.2545ZM65.0852 46.3418V48.0016H66.1418V49.3246H65.0852V52.6944C65.0852 52.9439 65.1289 53.1228 65.2165 53.2309C65.3041 53.3391 65.4716 53.3932 65.7191 53.3932C65.9019 53.3932 66.0637 53.3787 66.2046 53.3497V54.7161C65.8809 54.8243 65.5478 54.8784 65.2051 54.8784C64.0476 54.8784 63.4574 54.2399 63.4346 52.9626V49.3246H62.5322V48.0016H63.4346V46.3418H65.0852ZM68.9313 48.0016L68.9827 48.7818C69.4244 48.1786 70.0165 47.8769 70.759 47.8769C71.4139 47.8769 71.9012 48.087 72.2211 48.5072C72.5409 48.9273 72.7046 49.5556 72.7122 50.3917V54.7536H71.0617V50.4355C71.0617 50.0527 70.9855 49.7761 70.8332 49.6055C70.6809 49.4307 70.4277 49.3434 70.0736 49.3434C69.6091 49.3434 69.2607 49.5597 69.0284 49.9924V54.7536H67.378V48.0016H68.9313ZM77.1638 54.8784C76.2576 54.8784 75.5191 54.5748 74.9478 53.9674C74.3805 53.36 74.0968 52.5508 74.0968 51.54V51.3651C74.0968 50.6871 74.2169 50.0817 74.4568 49.5492C74.6965 49.0127 75.0354 48.6007 75.4734 48.3137C75.9149 48.0226 76.4175 47.8769 76.9811 47.8769C77.8263 47.8769 78.4908 48.168 78.9743 48.7505C79.4617 49.333 79.7054 50.1588 79.7054 51.2279V51.9642H75.7704C75.8237 52.4051 75.9835 52.7589 76.25 53.0251C76.5205 53.2912 76.8611 53.4245 77.2723 53.4245C77.9082 53.4245 78.4051 53.1727 78.763 52.6694L79.574 53.6615C79.3265 54.0443 78.9915 54.3439 78.5688 54.5601C78.1462 54.7723 77.6778 54.8784 77.1638 54.8784ZM76.9755 49.3372C76.6479 49.3372 76.3814 49.4578 76.1758 49.699C75.9741 49.9404 75.8445 50.2856 75.7874 50.7349H78.0834V50.5913C78.0757 50.192 77.9767 49.8843 77.7864 49.6679C77.596 49.4474 77.3256 49.3372 76.9755 49.3372ZM84.3454 52.8878C84.3454 52.6673 84.2445 52.4947 84.0427 52.3699C83.8447 52.2408 83.5249 52.1264 83.0832 52.0265C81.6135 51.6896 80.8788 51.0074 80.8788 49.9798C80.8788 49.3807 81.1052 48.8815 81.5583 48.4822C82.0152 48.0787 82.6111 47.8769 83.3459 47.8769C84.1303 47.8769 84.7566 48.0787 85.225 48.4822C85.6971 48.8857 85.9332 49.4099 85.9332 50.0548H84.2826C84.2826 49.7968 84.2066 49.5846 84.0543 49.4182C83.9018 49.2477 83.6639 49.1623 83.3402 49.1623C83.0623 49.1623 82.8473 49.2311 82.695 49.3683C82.5427 49.5057 82.4664 49.6803 82.4664 49.8925C82.4664 50.0921 82.5522 50.2544 82.7234 50.3793C82.8987 50.4999 83.1917 50.606 83.6031 50.6974C84.0142 50.7849 84.3608 50.8847 84.6424 50.9971C85.5143 51.3464 85.9503 51.9517 85.9503 52.813C85.9503 53.4286 85.7085 53.9278 85.225 54.3106C84.7414 54.6892 84.117 54.8784 83.3518 54.8784C82.8338 54.8784 82.3731 54.7785 81.9695 54.5789C81.5697 54.375 81.2556 54.0984 81.0271 53.749C80.7988 53.3953 80.6846 53.0146 80.6846 52.607H82.2495C82.2646 52.9273 82.3731 53.1727 82.5749 53.3432C82.7767 53.5138 83.0472 53.5992 83.3859 53.5992C83.7021 53.5992 83.9399 53.5347 84.0998 53.4058C84.2636 53.2726 84.3454 53.1 84.3454 52.8878ZM90.716 52.8878C90.716 52.6673 90.6151 52.4947 90.4133 52.3699C90.2153 52.2408 89.8955 52.1264 89.4538 52.0265C87.9841 51.6896 87.2492 51.0074 87.2492 49.9798C87.2492 49.3807 87.4759 48.8815 87.929 48.4822C88.3858 48.0787 88.9818 47.8769 89.7165 47.8769C90.5009 47.8769 91.1272 48.0787 91.5956 48.4822C92.0677 48.8857 92.3038 49.4099 92.3038 50.0548H90.6532C90.6532 49.7968 90.577 49.5846 90.4247 49.4182C90.2724 49.2477 90.0346 49.1623 89.7108 49.1623C89.433 49.1623 89.2177 49.2311 89.0654 49.3683C88.9131 49.5057 88.8371 49.6803 88.8371 49.8925C88.8371 50.0921 88.9228 50.2544 89.094 50.3793C89.2693 50.4999 89.5623 50.606 89.9735 50.6974C90.3849 50.7849 90.7314 50.8847 91.013 50.9971C91.8849 51.3464 92.3209 51.9517 92.3209 52.813C92.3209 53.4286 92.0791 53.9278 91.5956 54.3106C91.112 54.6892 90.4877 54.8784 89.7224 54.8784C89.2044 54.8784 88.7437 54.7785 88.3401 54.5789C87.9403 54.375 87.6263 54.0984 87.3977 53.749C87.1694 53.3953 87.0552 53.0146 87.0552 52.607H88.6201C88.6353 52.9273 88.7437 53.1727 88.9455 53.3432C89.1473 53.5138 89.4176 53.5992 89.7565 53.5992C90.0725 53.5992 90.3105 53.5347 90.4704 53.4058C90.6343 53.2726 90.716 53.1 90.716 52.8878Z" fill="white"/>
</g>
<defs>
<clipPath id="clip0">
<rect width="94" height="62" fill="white"/>
</clipPath>
</defs>
</svg>
